<?xml version="1.0" encoding="UTF-8" standalone="no"?><!DOCTYPE svg PUBLIC "-//W3C//DTD SVG 1.1//EN" "http://www.w3.org/Graphics/SVG/1.1/DTD/svg11.dtd"><svg width="100%" height="100%" viewBox="0 0 3200 3200" version="1.1" xmlns="http://www.w3.org/2000/svg" xmlns:xlink="http://www.w3.org/1999/xlink" xml:space="preserve" xmlns:serif="http://www.serif.com/" style="fill-rule:evenodd;clip-rule:evenodd;stroke-linejoin:round;stroke-miterlimit:2;"><path d="M1526.243,172.871l146.812,0c37.057,5.478 76.708,6.588 114.1,11.296c49.671,6.253 99.561,15.444 148.329,26.664c337.821,79.959 636.262,277.314 842.096,556.875c218.641,294.427 304.566,681.023 252.238,1042.518c-55.041,380.419 -246.7,703.155 -555.919,932.425c-185.151,134.801 -399.002,224.892 -624.793,263.212c-38.826,6.604 -77.916,11.543 -117.166,14.803c-14.275,1.316 -53.8,3.843 -66.165,6.467l-131.731,0c-11.963,-2.561 -49.403,-4.947 -63.169,-6.229c-39.997,-3.386 -79.852,-8.288 -119.474,-14.706c-217.626,-36.552 -424.225,-121.637 -604.479,-248.949c-301.961,-212.687 -506.876,-536.805 -569.521,-900.82c-64.128,-367.802 11.146,-757.152 227.059,-1064.04c204.997,-290.287 508.337,-496.341 853.724,-579.922c50.901,-11.993 104.426,-21.722 156.308,-28.458c35.95,-4.668 76.429,-5.003 111.751,-11.135Zm-3.155,128.506c-718.909,42.316 -1267.484,659.314 -1225.451,1378.297c42.03,718.983 658.765,1267.845 1377.704,1226.086c719.34,-41.777 1268.514,-658.977 1226.48,-1378.354c-42.071,-719.381 -659.43,-1268.368 -1378.733,-1226.029Zm-437.181,617.771l4.248,-0.227c4.393,-0.197 14.702,-0.45 18.27,1.591c39.469,22.589 104.355,72.88 136.659,102.601c7.106,28.238 20.036,114.122 23.392,144.077l123.361,98.342c-15.026,22.321 -23.336,40.499 -34.838,64.882l-4.214,1.676c-31.791,-24.755 -136.083,-99.063 -152.822,-129.995c-6.838,-12.64 -21.786,-115.085 -25.647,-138.034c-21.894,-17.486 -46.735,-35.203 -69.476,-51.67c-35.801,-25.922 -73.523,-60.411 -18.932,-93.243Zm270.813,1270.666c161.18,-0.353 326.482,-1.71 487.42,0.379c-8.139,39.733 -16.323,73.304 -28.747,111.859l-10.696,29.966l-409.504,-0.182c-19.118,-49.812 -28.554,-90.184 -38.473,-142.022Zm511.072,-640.64c17.586,1.256 37.265,5.37 54.9,8.005c140.795,21.058 281.877,44.442 422.69,64.908c112.661,16.379 142.765,82.974 38.96,152.636c-61.984,39.785 -180.848,74.746 -249.421,42.598c-94.068,-44.1 -200.79,-138.465 -283.616,-203.332c7.414,-20.812 12.079,-43.238 16.486,-64.815Zm-284.196,-340.709c88.222,-9.366 160.994,51.436 197.65,126.706c38.912,81.956 44.137,175.897 14.554,261.663c-25.696,74.408 -65.313,119.106 -135.09,152.822c80.915,35.589 122.495,90.459 158.653,168.71l-200.449,0.138l-238.096,-0.111c32.943,-77.459 80.023,-133.507 157.315,-168.279c-13.48,-6.868 -28.067,-14.68 -40.435,-23.592c-148.99,-107.343 -150.536,-372.741 -4.352,-482.957c27.428,-20.679 57.048,-29.899 90.251,-35.098Zm1009.241,-48.251c14.933,-3.133 47.694,-1.319 63.184,0.394c65.551,7.236 134.789,41.379 120.221,120.109c-17.319,93.852 -104.504,174.314 -174.37,233.276c-28.702,21.165 -73.739,47.753 -109.569,52.826c-64.559,9.143 -146.27,-8.73 -210.342,-18.393c-60.419,-9.291 -120.886,-18.274 -181.398,-26.952c-75.597,-9.83 -151.703,-22.723 -227.638,-32.984c0.431,-29.256 -3.077,-53.053 -8.18,-81.662c128.133,-46.2 256.006,-93.12 383.615,-140.754c102.01,-37.93 238.528,-94.231 344.477,-105.86Zm-1272.836,390.87l6.363,-0.747c8.964,5.731 17.23,49.964 21.567,65.339c-32.85,25.205 -70.327,53.246 -102.088,79.365c-144.79,119.065 -231.455,185.248 -415.514,88.348c-38.194,-20.768 -103.931,-79.971 -69.145,-120.96c36.633,-43.167 174.296,-52.336 227.999,-60.642l330.819,-50.704Zm490.081,148.856c9.555,3.07 189.857,164.752 209.086,185.278c16.635,72.33 32.98,197.654 45.337,274.403c24.874,25.748 136.172,128.601 143.4,154.468c2.613,9.351 2.085,18.568 -2.958,27.078c-7.738,13.056 -20.426,17.27 -34.311,20.771c-9.009,-1.609 -15.241,-4.066 -22.637,-9.462c-25.852,-18.861 -47.545,-47.021 -70.424,-69.703c-24.614,-24.406 -64.674,-56.751 -82.008,-85.802c-13.944,-23.369 -40.201,-228.318 -46.776,-271.025c-29.319,-29.55 -65.644,-58.152 -95.246,-88.605c-28.613,-29.435 -53.699,-60.954 -84.873,-87.211c16.208,-16.962 27.123,-31.434 41.409,-50.191Zm-1261.449,-539.775c100.68,-16.906 312.56,72.274 411.262,109.049l375.335,137.696c-6.697,29.275 -8.344,51.143 -8.734,80.967c-55.171,9.098 -111.364,16.126 -166.822,25.135c-133.396,18.029 -273.6,43.959 -407.167,56.974c-98.981,9.644 -195.13,-86.449 -255.739,-154.238c-88.207,-98.658 -127.408,-235.402 51.864,-255.583Zm1542.5,-240.858c3.397,-0.208 6.797,-0.338 10.202,-0.394c21.827,-0.275 43.754,18.701 40.283,37.726c-7.009,38.458 -87.178,84.766 -116.133,108.224c-7.518,47.151 -14.684,96.302 -23.733,143.025c-20.883,24.061 -121.536,98.405 -149.432,119.604c-3.222,2.156 -3.044,1.981 -6.883,2.672c-8.217,-9.707 -25.581,-46.694 -38.131,-64.841c35.139,-26.565 92.046,-69.695 123.644,-98.253c6.578,-45.204 14.721,-97.755 23.622,-142.111c19.296,-20.768 110.231,-89.69 136.562,-105.652Zm-662.552,1477.878c111.16,-2.605 233.295,-0.427 345.124,-0.104c-19.4,38.666 -43.698,74.672 -72.304,107.124c-22.221,24.243 -63.344,60.616 -95.506,65.221c-58.044,8.31 -170.516,-127.821 -177.313,-172.24Zm-67.614,-413.422l477.743,0.119c5.289,28.334 17.181,113.501 9.834,139.372l-5.422,2.167l-491.702,-0.004c-4.612,-51.12 1.669,-91.485 9.548,-141.654Zm26.643,-283.337c4.088,2.475 36.537,41.097 44.995,49.526c-31.43,27.933 -56.045,58.356 -85.635,87.538c-30.932,30.505 -64.916,58.572 -96.398,88.872c-4.686,39.595 -33.359,254.36 -48.805,274.388c-21.909,28.405 -136.967,148.775 -163.678,159.883c-19.857,0.175 -47.909,-7.964 -46.932,-32.296c1.319,-32.735 39.96,-63.604 61.991,-85.468l81.93,-81.699c5.932,-37.689 37.079,-258.024 49.593,-276.681c16.04,-23.908 172.497,-157.59 202.939,-184.063Zm-176.102,-1069.712c19.523,0.256 47.798,7.76 66.027,15.081c136.737,54.911 206.265,162.737 263.45,289.815c42.714,-9.496 75.649,-7.979 117.976,0.171c57.602,-135.146 145.961,-255.787 293.089,-299.816c31.311,-9.369 89.103,4.151 68.235,46.445c-9.618,19.497 -32.014,27.127 -51.581,31.787c-90.463,22.645 -153.394,90.935 -205.276,163.778c-16.293,24.042 -30.39,49.916 -43.676,75.69c116.452,60.947 125.398,162.905 14.844,237.587c-25.32,-17.917 -53.922,-30.676 -84.175,-37.548c-69.565,-15.736 -126.565,0.65 -185.278,37.615c-25.521,-17.709 -50.518,-37.923 -64.931,-65.982c-13.625,-25.963 -16.044,-56.368 -6.701,-84.16c14.383,-42.94 48.719,-67.555 86.877,-86.973c-41.041,-87.713 -115.464,-182.617 -205.637,-225.1c-29.167,-13.744 -115.482,-20.084 -94.183,-73.531c5.378,-13.502 17.932,-20.043 30.94,-24.86Z" style="fill:url(#_Linear1);"/><defs><linearGradient id="_Linear1" x1="0" y1="0" x2="1" y2="0" gradientUnits="userSpaceOnUse" gradientTransform="matrix(-0,2304.166667,-2304.166667,-0,1600,437.5)"><stop offset="0" style="stop-color:#ff9d00;stop-opacity:1"/><stop offset="1" style="stop-color:#c66300;stop-opacity:1"/></linearGradient></defs></svg>